<svg width="20" height="20" viewBox="0 0 20 20" fill="none" xmlns="http://www.w3.org/2000/svg">
<rect width="20" height="20" rx="10" fill="#E5E5E5"/>
<path d="M12.15 11.125C11.4773 11.125 11.1539 11.5 10.05 11.5C8.94608 11.5 8.62499 11.125 7.94999 11.125C6.21093 11.125 4.79999 12.5359 4.79999 14.275V14.875C4.79999 15.4961 5.30389 16 5.92499 16H14.175C14.7961 16 15.3 15.4961 15.3 14.875V14.275C15.3 12.5359 13.8891 11.125 12.15 11.125ZM14.175 14.875H5.92499V14.275C5.92499 13.1594 6.83436 12.25 7.94999 12.25C8.29218 12.25 8.84764 12.625 10.05 12.625C11.2617 12.625 11.8055 12.25 12.15 12.25C13.2656 12.25 14.175 13.1594 14.175 14.275V14.875ZM10.05 10.75C11.9133 10.75 13.425 9.23828 13.425 7.375C13.425 5.51172 11.9133 4 10.05 4C8.18671 4 6.67499 5.51172 6.67499 7.375C6.67499 9.23828 8.18671 10.75 10.05 10.75ZM10.05 5.125C11.2898 5.125 12.3 6.13516 12.3 7.375C12.3 8.61484 11.2898 9.625 10.05 9.625C8.81014 9.625 7.79999 8.61484 7.79999 7.375C7.79999 6.13516 8.81014 5.125 10.05 5.125Z" fill="#C4C4C4"/>
</svg>
