<svg width="45" height="45" viewBox="0 0 45 45" fill="none" xmlns="http://www.w3.org/2000/svg">
<path d="M30.5027 15H15.5005C14.264 14.9998 13.0467 15.3054 11.9568 15.8895C10.867 16.4736 9.93844 17.3182 9.25394 18.3479C8.56943 19.3777 8.15017 20.5607 8.03347 21.7917C7.91678 23.0227 8.10628 24.2635 8.58509 25.4035C9.06391 26.5435 9.81719 27.5475 10.7779 28.326C11.7386 29.1045 12.8768 29.6334 14.0913 29.8655C15.3059 30.0977 16.5589 30.026 17.739 29.6567C18.9191 29.2875 19.9896 28.6321 20.8552 27.7491H25.1448C26.0103 28.632 27.0806 29.2873 28.2606 29.6566C29.4405 30.0259 30.6934 30.0977 31.9079 29.8657C33.1223 29.6337 34.2605 29.105 35.2212 28.3268C36.1819 27.5485 36.9353 26.5448 37.4143 25.405C37.8933 24.2652 38.0831 23.0246 37.9667 21.7938C37.8504 20.5629 37.4315 19.3798 36.7474 18.35C36.0633 17.3201 35.1352 16.4753 34.0457 15.8909C32.9562 15.3064 31.7391 15.0004 30.5027 15ZM19.6252 23.0619C19.6252 23.2111 19.566 23.3542 19.4605 23.4596C19.355 23.5651 19.212 23.6244 19.0628 23.6244H16.6255V26.0617C16.6255 26.2109 16.5662 26.354 16.4607 26.4594C16.3552 26.5649 16.2122 26.6242 16.063 26.6242H14.9381C14.7889 26.6242 14.6458 26.5649 14.5404 26.4594C14.4349 26.354 14.3756 26.2109 14.3756 26.0617V23.6244H11.9383C11.7891 23.6244 11.6461 23.5651 11.5406 23.4596C11.4351 23.3542 11.3758 23.2111 11.3758 23.0619V21.937C11.3758 21.7878 11.4351 21.6448 11.5406 21.5393C11.6461 21.4338 11.7891 21.3745 11.9383 21.3745H14.3756V18.9372C14.3756 18.788 14.4349 18.645 14.5404 18.5395C14.6458 18.434 14.7889 18.3748 14.9381 18.3748H16.063C16.2122 18.3748 16.3552 18.434 16.4607 18.5395C16.5662 18.645 16.6255 18.788 16.6255 18.9372V21.3745H19.0628C19.212 21.3745 19.355 21.4338 19.4605 21.5393C19.566 21.6448 19.6252 21.7878 19.6252 21.937V23.0619ZM29.7495 26.6242C29.3787 26.6242 29.0162 26.5142 28.7079 26.3082C28.3996 26.1022 28.1593 25.8094 28.0174 25.4668C27.8755 25.1242 27.8383 24.7472 27.9107 24.3835C27.983 24.0198 28.1616 23.6858 28.4238 23.4236C28.686 23.1614 29.0201 22.9828 29.3837 22.9105C29.7474 22.8381 30.1244 22.8753 30.467 23.0172C30.8096 23.1591 31.1024 23.3994 31.3084 23.7077C31.5144 24.016 31.6244 24.3785 31.6244 24.7493C31.6244 25.2466 31.4269 25.7234 31.0752 26.075C30.7236 26.4266 30.2468 26.6242 29.7495 26.6242ZM32.7493 22.1245C32.3785 22.1245 32.016 22.0145 31.7077 21.8085C31.3994 21.6025 31.1591 21.3097 31.0172 20.9671C30.8752 20.6245 30.8381 20.2475 30.9105 19.8839C30.9828 19.5202 31.1614 19.1861 31.4236 18.9239C31.6858 18.6617 32.0198 18.4831 32.3835 18.4108C32.7472 18.3384 33.1242 18.3756 33.4668 18.5175C33.8094 18.6594 34.1022 18.8997 34.3082 19.208C34.5142 19.5163 34.6242 19.8788 34.6242 20.2496C34.6242 20.7469 34.4266 21.2238 34.075 21.5754C33.7234 21.927 33.2465 22.1245 32.7493 22.1245Z" fill="white"/>
</svg>
