<svg width="45" height="45" viewBox="0 0 45 45" fill="none" xmlns="http://www.w3.org/2000/svg">
<path d="M36.4662 26.0235L33.9701 24.5821C34.222 23.2227 34.222 21.8282 33.9701 20.4688L36.4662 19.0274C36.7533 18.8633 36.8822 18.5235 36.7884 18.2071C36.1381 16.1212 35.0306 14.2344 33.5834 12.6641C33.3607 12.4239 32.9974 12.3653 32.7162 12.5294L30.2201 13.9708C29.1713 13.0684 27.9642 12.3712 26.6576 11.9141V9.03716C26.6576 8.70904 26.4291 8.42193 26.1068 8.35162C23.9564 7.87115 21.7533 7.89459 19.7084 8.35162C19.3861 8.42193 19.1576 8.70904 19.1576 9.03716V11.92C17.8568 12.3829 16.6498 13.0801 15.5951 13.9766L13.1048 12.5352C12.8177 12.3712 12.4603 12.4239 12.2377 12.67C10.7904 14.2344 9.68298 16.1212 9.03259 18.2129C8.93298 18.5294 9.06774 18.8692 9.35485 19.0333L11.8509 20.4747C11.599 21.834 11.599 23.2286 11.8509 24.588L9.35485 26.0294C9.06774 26.1934 8.93884 26.5333 9.03259 26.8497C9.68298 28.9356 10.7904 30.8223 12.2377 32.3926C12.4603 32.6329 12.8236 32.6915 13.1048 32.5274L15.6009 31.086C16.6498 31.9883 17.8568 32.6856 19.1634 33.1426V36.0255C19.1634 36.3536 19.392 36.6407 19.7142 36.711C21.8646 37.1915 24.0677 37.168 26.1127 36.711C26.4349 36.6407 26.6634 36.3536 26.6634 36.0255V33.1426C27.9642 32.6798 29.1713 31.9825 30.2259 31.086L32.722 32.5274C33.0091 32.6915 33.3666 32.6387 33.5892 32.3926C35.0365 30.8282 36.1439 28.9415 36.7943 26.8497C36.8822 26.5274 36.7533 26.1876 36.4662 26.0235ZM22.9076 27.213C20.3236 27.213 18.2201 25.1094 18.2201 22.5255C18.2201 19.9415 20.3236 17.8379 22.9076 17.8379C25.4916 17.8379 27.5951 19.9415 27.5951 22.5255C27.5951 25.1094 25.4916 27.213 22.9076 27.213Z" fill="white"/>
</svg>
