<svg width="45" height="45" viewBox="0 0 45 45" fill="none" xmlns="http://www.w3.org/2000/svg">
<path d="M11.5 21C13.1547 21 14.5 19.6547 14.5 18C14.5 16.3453 13.1547 15 11.5 15C9.84531 15 8.5 16.3453 8.5 18C8.5 19.6547 9.84531 21 11.5 21ZM32.5 21C34.1547 21 35.5 19.6547 35.5 18C35.5 16.3453 34.1547 15 32.5 15C30.8453 15 29.5 16.3453 29.5 18C29.5 19.6547 30.8453 21 32.5 21ZM34 22.5H31C30.175 22.5 29.4297 22.8328 28.8859 23.3719C30.775 24.4078 32.1156 26.2781 32.4062 28.5H35.5C36.3297 28.5 37 27.8297 37 27V25.5C37 23.8453 35.6547 22.5 34 22.5ZM22 22.5C24.9016 22.5 27.25 20.1516 27.25 17.25C27.25 14.3484 24.9016 12 22 12C19.0984 12 16.75 14.3484 16.75 17.25C16.75 20.1516 19.0984 22.5 22 22.5ZM25.6 24H25.2109C24.2359 24.4688 23.1531 24.75 22 24.75C20.8469 24.75 19.7688 24.4688 18.7891 24H18.4C15.4187 24 13 26.4188 13 29.4V30.75C13 31.9922 14.0078 33 15.25 33H28.75C29.9922 33 31 31.9922 31 30.75V29.4C31 26.4188 28.5812 24 25.6 24ZM15.1141 23.3719C14.5703 22.8328 13.825 22.5 13 22.5H10C8.34531 22.5 7 23.8453 7 25.5V27C7 27.8297 7.67031 28.5 8.5 28.5H11.5891C11.8844 26.2781 13.225 24.4078 15.1141 23.3719Z" fill="white"/>
</svg>
